# xmcd CD database file
#
# Track frame offsets:
#	183
#	23020
#	42408
#	58648
#	67370
#	83020
#	99230
#	115093
#	134908
#	146838
#	160163
#	172030
#	185983
#	195665
#	209383
#	224708
#	239403
#	250430
#
# Disc length: 3500 seconds
#
# Revision: 2
# Processed by: cddbd v1.5.2PL0 Copyright (c) Steve Scherf et al.
# Submitted via: CDex 1.51
#
DISCID=210daa12
DTITLE=B.B. King - B.B. Boogie
DYEAR=1900
DGENRE=Blues
TTITLE0=Everyday I Have The Blues
TTITLE1=Sweet Sixteen
TTITLE2=The Other Night Blues
TTITLE3=A New Way Of Driving
TTITLE4=Walkin' And Cryin'
TTITLE5=It's My Own Fault Baby
TTITLE6=The Letter
TTITLE7=How Blue Can You Get
TTITLE8=Paying The Cost To Be The Boss
TTITLE9=Army Of The Lord
TTITLE10=I Never Heard A Man
TTITLE11=Save A Seat For Me
TTITLE12=Swing Low Sweet Chariot - Rock Me Lord
TTITLE13=Servant's Prayer
TTITLE14=Take My Hand Precious Lord 
TTITLE15=B.B. Boogie
TTITLE16=Catfish Blues
TTITLE17=Please Love Me
EXTD=
EXTT0=
EXTT1=
EXTT2=
EXTT3=
EXTT4=
EXTT5=
EXTT6=
EXTT7=
EXTT8=
EXTT9=
EXTT10=
EXTT11=
EXTT12=
EXTT13=
EXTT14=
EXTT15=
EXTT16=
EXTT17=
PLAYORDER=
